Patient4_TMGait_0pt2_03_right_13_EMG.mot
version=1
nRows=33
nColumns=33
inDegrees=no
endheader
time	1LAddLong	2LGlutMax	3LGlutMed	4LIliopsoas	5LSemiMemb	6LBicFemLong	7LRecFem	8LVastMed	9LVastLat	10LGasMed	11LTibAnt	12lTibPost	13LPeroneusLong	14LSol	15LExtDigLong	16LFlexDigLong	17RAddLong	18RGlutMax	19RGlutMed	20RIliopsoas	21RSemiMemb	22RBicFemLong	23RRecFem	24RVastMed	25RVastLat	26RGasMed	27RTibAnt	28RTibPost	29RPeroneusLong	30RSol	31RExtDigLong	32RFlexDigLong
28.567	0.006561	-0.12192	0.036163	0.008087	0.04364	-0.072327	0.002441	0.004883	0.006256	-0.011139	0.005188	0.003204	0.017242	-0.046387	0.021515	-0.044098	0.031738	0.013885	-0.12375	0.11322	0.24307	-0.11292	-0.01236	-0.81467	0.006561	0.018921	-0.083313	0.007629	1.122	0.084991	-0.001373	-0.018921
28.568	-0.004578	-0.10117	0.031586	-0.009003	0.037689	-0.034027	0.000916	0.001373	0.016785	-0.005188	0.00824	-0.000153	-0.034485	-0.040741	0.005951	-0.048218	-0.014801	-0.036316	-0.13001	0.042114	0.077515	-0.082397	-0.12711	-0.79239	0.28793	0.043488	-0.091095	0.032196	0.25085	-0.16617	-0.003357	-0.011139
28.569	-0.003967	-0.098114	0.028992	-0.020447	0.026398	-0.02594	-0.003967	0.00412	0.018158	0.028839	0.005646	0.003357	-0.057678	-0.003052	-0.000458	0.33005	-0.014496	-0.11292	0.061188	-0.031128	0.015259	0.089111	-0.039825	-0.50339	0.22232	-0.003967	-0.070801	-0.16113	-0.69488	-0.44281	0.002136	-0.019531
28.57	-0.003662	-0.066528	0.038757	0.002441	0.014191	0.036316	-0.013123	-0.003815	0.01236	0.047455	0.014648	0.003204	-0.054779	0.058746	-0.015106	0.22888	0.021667	-0.088348	0.056458	-0.033875	-0.062103	0.23865	-0.052795	-0.45212	0.067749	-0.075531	0.004425	-0.19333	0.015564	-0.21194	-0.001831	-0.020752
28.571	-0.004578	-0.097198	0.045624	0.00824	0.016327	-0.016174	-0.014496	0.004883	0.018616	-0.012817	0.013885	0.014496	-0.031128	0.19241	-0.009308	-0.022125	0.044861	-0.17899	-0.15747	-0.032043	-0.25528	0.34622	-0.2005	-0.41824	0.082703	-0.051727	0.018616	0.008392	0.46814	0.1506	-0.000305	-0.022736
28.572	-0.005188	-0.14954	0.019684	0.003815	-0.005798	0.006561	-0.010834	0	0.016022	0.022278	0.006561	-0.059662	0.051422	0.41184	0.014038	-0.69214	0.052643	-0.27054	0.11276	-0.094299	-0.15533	0.36728	-0.17899	-0.097351	0.12634	-0.015259	0.003204	0.13184	0.79285	0.29068	-0.004425	-0.016785
28.573	-0.010986	-0.11154	0.028381	-0.007019	-0.064087	0.059052	-0.002899	0.005035	0.009003	0.18082	-0.002747	-0.34744	0.018921	0.46631	0.054626	0.13718	0.051422	-0.20493	0.37918	-0.13825	-0.22858	0.36468	-0.11536	0.24658	0.23422	-0.006714	0.011902	0.033264	0.61447	0.016632	-0.003967	-0.018158
28.574	-0.008545	-0.12741	0.030212	-0.010986	-0.14358	0.024261	-0.031433	0.009155	0.007324	0.35446	0.00061	-0.22949	-0.024872	0.51331	0.077515	-0.19165	-0.004425	-0.087433	-0.11719	-0.16861	-0.1358	0.23926	0.050354	0.24536	0.1593	-0.012817	0.016785	-0.013428	0.32791	0.11246	-0.001831	-0.019989
28.575	0.005493	-0.11871	0.074768	0.0354	-0.10803	0.006104	-0.020294	0.007019	0.017395	0.26886	0.016022	0.15945	-0.077362	0.25696	0.042572	0.050812	-0.049438	0.003967	-0.46921	-0.22827	0.018616	0.020447	0.062408	0.20371	0.08667	-0.002441	0.005951	-0.00946	-0.005035	0.08606	0.00061	-0.009003
28.576	0.006256	-0.12741	0.053864	0.00946	0.022125	0.019226	-0.006866	0.001373	0.008698	0.049591	0.009613	0.36255	-0.21149	-0.32516	-0.033264	0.34927	-0.032043	0.027008	-0.61203	-0.071259	-0.009766	-0.089111	0.095825	0.11841	0.042725	-0.001068	-0.058136	0.059967	0.084991	0.22583	-0.001221	-0.003204
28.577	0.01297	-0.13306	0.037384	-0.006714	0.050201	0.08255	-0.010681	0.006409	0.021973	0.053711	0.005493	0.31952	-0.21011	-0.36285	-0.082855	1.0217	-0.021057	0.049286	-0.43549	0.082245	0.002747	-0.18234	0.051727	-0.004425	0.018463	-0.006714	-0.02533	0.062561	0.21561	0.36682	0.001373	-0.00351
28.578	0.016937	-0.12283	0.03479	0.006104	0.083466	0.068512	-0.030975	-0.005493	0.031433	0.16357	0.011139	-0.093536	-0.17242	0.005035	-0.1004	0.07843	-0.049286	0.015106	0.34927	0.11505	-0.055084	-0.22385	0.081635	-0.018463	0.045929	-0.001526	0.013123	0.037079	0.22812	0.036163	-0.000153	-0.010223
28.579	0.014038	-0.11688	0.054321	0.002441	0.056458	0.07843	-0.041351	-0.001678	0.036621	-0.041199	0.000153	-0.029297	-0.031738	-0.6572	-0.059052	-0.54962	-0.039673	-0.008698	0.57724	0.17746	0.02533	-0.32105	0.066986	0.067139	0.026855	0.001068	0.065613	-0.002594	-0.36972	-0.042877	-0.002441	-0.005951
28.58	-0.00061	-0.10101	0.032501	0.004883	0.063019	0.081177	-0.03952	-0.003662	0.031891	-0.12512	-0.009613	0.14023	0.16388	-0.7811	-0.023956	-0.037079	-0.039673	-0.073395	0.53024	0.20462	0.097046	-0.45471	0.033569	0.070801	-0.018311	0.014191	0.051117	-0.007019	-0.29495	0.030823	-0.001678	-0.01236
28.581	-0.00946	-0.14099	0.030975	0.00824	0.033875	0.044861	-0.035248	-0.00412	0.038605	-0.037842	-0.005188	0.033722	0.37399	-0.23102	0.020142	0.26154	0.010529	-0.14847	-0.070343	0.13687	0.1001	-0.43243	0.024414	0.085449	-0.013275	0.006714	0.010986	0.003204	0.59845	0.003204	-0.000458	-0.011902
28.582	0	-0.15335	0.040894	-0.007172	-0.027008	0.063324	-0.052338	-0.008545	0.03952	-0.006256	-0.01236	0.005798	0.32211	0.43869	0.031738	0.018463	0.014038	-0.25589	-0.23895	0.088348	-0.065613	-0.20538	-0.036163	0.2092	0.020599	0.007477	0.11276	-0.011902	0.26489	0.031891	-0.001678	-0.008545
28.583	0.011749	-0.1294	0.078888	0.005493	-0.024872	-0.032654	-0.053864	-0.00473	0.045776	-0.007629	-0.007019	-0.068512	0.18967	0.50842	0.002289	-0.098724	0.025787	-0.27451	0.057678	0.01297	-0.26077	-0.066071	-0.089264	0.22049	0.12985	0.003052	0.11124	-0.003662	-0.23682	-0.009766	-0.001373	-0.014648
28.584	0.010986	-0.14328	0.058899	0.022583	-0.020752	-0.086975	-0.051117	-0.003357	0.03891	-0.056458	-0.00473	0.002747	0.12116	-0.005798	-0.045319	-0.081024	0.00412	-0.29923	0.076141	0.021057	0.03067	0.1619	-0.032349	0.31357	0.095978	0.006561	-0.003052	-0.00946	-0.72769	-0.00946	-0.002289	-0.001068
28.585	0.003052	-0.14801	0.052338	0.011444	-0.024261	-0.059357	-0.014343	-0.00412	0.022888	-0.067139	0.001221	-0.008087	0.090485	-0.68695	-0.033264	0.016479	0.016632	-0.39719	-0.038605	0.034485	0.18982	0.23468	-0.005035	0.32059	0.059662	0.000153	0.033569	-0.014343	-0.70496	0.057373	-0.001373	-0.013123
28.586	0.001068	-0.16357	0.033722	0.007172	-0.063324	-0.081787	-0.010681	-0.002289	0.026398	-0.044098	0.00351	-0.016937	0.087738	-0.55725	-0.004272	-0.097504	0.020752	-0.48966	-0.013428	0.021515	0.41397	-0.070801	0.066528	0.020447	-0.002594	-0.002136	-0.061035	-0.018616	-0.28427	0.17441	-0.004578	-0.012207
28.587	0.010834	-0.16571	0.059052	-0.013885	-0.12039	-0.15152	-0.019836	-0.006866	0.03006	-0.043488	0.003052	-0.01358	0.077667	-0.32471	0.022125	-0.15549	-0.014648	-0.5339	0.004272	-0.018005	0.31311	-0.14038	0.079193	-0.14999	-0.043182	-0.008698	-0.11322	-0.019989	-0.39261	0.11353	0.001221	-0.014496
28.588	0.007477	-0.15854	0.097809	-0.016937	-0.031586	-0.21606	-0.038605	-0.007019	0.035248	-0.024414	0.003967	-0.014191	0.048828	-0.224	0.011597	0.043793	-0.041656	-0.56122	-0.14069	-0.042419	0.12711	-0.088348	0.12039	-0.23743	-0.00351	-0.021667	-0.028381	-0.007324	-0.65536	-0.011292	-0.002441	-0.004883
28.589	0.011597	-0.15991	0.08194	-0.002136	0.075684	-0.16663	-0.014954	-0.005646	0.017853	-0.031738	0.002899	-0.014191	0.060577	-0.10376	0.007172	-0.002136	-0.021057	-0.5127	-0.13718	-0.099487	-0.14404	0.024261	0.18005	-0.15884	-0.023499	-0.027161	-0.043335	0.010681	-0.23682	-0.046387	-0.001526	-0.012817
28.59	0.005188	-0.17471	0.087738	0.002136	0.065155	-0.060577	0.003662	-0.003815	0.001678	-0.031586	-0.003815	-0.009766	0.044861	-0.015411	0.006866	-0.021667	-0.000458	-0.4602	-0.072632	-0.080872	-0.16281	-0.023956	0.11566	-0.042572	0.12711	-0.018158	-0.045319	-0.029602	0.31494	-0.15595	0.007477	-0.007172
28.591	0.001068	-0.15976	0.075226	-0.001678	0.13794	0.076752	0.021973	0.000458	-0.004272	-0.037231	0.005798	-0.003357	0.053101	0.077972	0.010834	-0.017548	0.017395	-0.46585	-0.026855	-0.000916	-0.28519	-0.029297	0.13321	0.097504	0.23025	-0.080872	0.04303	-0.18875	-0.40039	-0.18433	-0.000305	-0.006714
28.592	0.001984	-0.16327	0.076599	0.002136	0.080719	0.079498	0.018005	0.003204	0.005951	-0.03067	0.005646	0.000153	0.058441	0.14008	0.011139	-0.010681	0.040436	-0.47943	-0.15778	0.081024	-0.20477	-0.022125	0.21439	-0.004272	0.068665	-0.032196	0.045013	0.065765	-0.013123	-0.093384	0.002289	-0.007782
28.593	-0.005341	-0.14603	0.076904	0.008545	0.04425	-0.000153	0.01709	0.000153	0.005646	-0.012817	-0.005798	-0.005646	0.030365	0.11215	0.010071	-0.022278	0.036163	-0.4332	-0.14069	0.12741	-0.18524	-0.027771	0.18936	-0.12314	-0.024414	0.061798	0.00473	0.030823	0.25436	0.092316	0.000763	-0.003967
28.594	-0.003662	-0.14847	0.070648	0.007019	0.043793	-0.06546	0.027924	0.00351	0.007172	-0.00946	0.013123	-0.007019	0.012665	0.044098	-0.00473	-0.023804	0.026703	-0.43304	-0.052948	0.01297	-0.18814	0.054626	0.13947	-0.10391	-0.03891	0.032654	0.040131	0.00946	0.80139	0.079498	-0.001068	-0.006866
28.595	-0.001373	-0.12711	0.066071	-0.005951	0.062103	-0.075378	0.017242	0.000763	0.009155	-0.025177	0.003967	-0.004578	0.014648	0.056458	-0.002899	-0.024719	0.00885	-0.44022	-0.089264	-0.030823	-0.02243	0.12665	0.086365	-0.079803	0.095367	0.010071	0.15793	-0.00412	0.56885	-0.14771	-0.001221	-0.010986
28.596	-0.00412	-0.14069	0.073242	0.002594	0.045929	-0.011749	0.007629	-0.000458	0.005798	-0.022583	0.011597	-0.007324	0.052185	0.079041	0.011597	-0.040436	-0.03067	-0.36774	-0.061951	-0.022125	-0.053711	0.1741	0.027618	-0.024109	0.17425	0.009308	0.14954	0.019073	0.60379	-0.39429	-0.000305	-0.010376
28.597	-0.022125	-0.17548	0.046997	-0.000916	-0.007324	-0.045166	0.027618	0.005341	-0.001984	-0.016174	0.002441	-0.009155	0.043793	0.091553	0.019684	-0.040588	-0.027161	-0.4097	-0.16968	0.005341	-0.24475	0.24246	0.001526	-0.035858	0.16068	0.019989	0.075836	0.031281	0.46692	-0.62714	0.000153	-0.009766
28.598	-0.006714	-0.16724	0.065765	0.006714	-0.025635	-0.04776	0.005646	-0.001068	0.005188	-0.023193	0.005646	-0.005188	0.035858	0.083771	0.031891	-0.055389	0.011139	-0.3833	0.075226	0.025177	-0.16144	0.37048	0.020905	0.010376	0.12436	0.033417	-0.088348	0.03006	-0.032196	-0.4155	-0.002594	-0.012665
28.599	0.011597	-0.1387	0.070343	-0.000458	-0.000153	-0.030212	0.012512	-0.009613	0.020294	-0.06485	0.027161	-0.005493	0.032349	0.14114	0.019379	-0.055237	0.05722	-0.41672	0.10361	0.054932	0.14572	0.13825	0.040283	-0.040436	0.076599	0.023956	0.001373	-0.090942	-1.0736	0.024872	-0.001984	-0.010681
